<?xml version="1.0" encoding="UTF-8" standalone="no"?>
<!-- Created with Inkscape (http://www.inkscape.org/) -->

<svg
   width="500"
   height="500"
   viewBox="0 0 132.29166 132.29167"
   version="1.1"
   id="svg1"
   xml:space="preserve"
   sodipodi:docname="logo.svg"
   inkscape:version="1.3.2 (9e3d6414e7, 2024-01-14, custom)"
   xmlns:inkscape="http://www.inkscape.org/namespaces/inkscape"
   xmlns:sodipodi="http://sodipodi.sourceforge.net/DTD/sodipodi-0.dtd"
   xmlns="http://www.w3.org/2000/svg"
   xmlns:svg="http://www.w3.org/2000/svg"><sodipodi:namedview
     id="namedview1"
     pagecolor="#ffffff"
     bordercolor="#000000"
     borderopacity="0.25"
     inkscape:showpageshadow="2"
     inkscape:pageopacity="0.0"
     inkscape:pagecheckerboard="0"
     inkscape:deskcolor="#d1d1d1"
     inkscape:document-units="mm"
     inkscape:zoom="1.1676236"
     inkscape:cx="160.15435"
     inkscape:cy="296.32836"
     inkscape:window-width="1920"
     inkscape:window-height="1011"
     inkscape:window-x="0"
     inkscape:window-y="0"
     inkscape:window-maximized="1"
     inkscape:current-layer="layer1" /><defs
     id="defs1" /><g
     inkscape:label="Layer 1"
     inkscape:groupmode="layer"
     id="layer1"><path
       id="path1-6"
       style="fill:#d12b2e;fill-opacity:1;stroke-width:2.46968"
       d="m 11.998751,11.998751 v 18.549255 l 12.689665,0.0052 c 14.008093,0.0054 15.09901,0.125575 18.429366,2.035018 4.924629,2.823539 7.678875,9.992915 6.399609,15.958716 -0.84668,3.948468 -3.762649,8.236809 -7.517371,10.220049 l -2.145605,1.133264 -6.390825,0.111621 -6.391341,0.111621 V 43.188611 H 11.998751 V 120.29295 H 27.072249 V 79.319706 l 7.306531,-0.141593 c 6.235168,-0.121024 7.657806,-0.245206 9.706384,-0.848527 2.982171,-0.878285 7.361676,-2.949074 9.566342,-4.523238 2.420928,-1.728597 6.941927,-6.457044 8.129736,-8.502841 3.609314,-6.216388 4.973498,-9.63826 5.747969,-14.415657 C 70.069985,35.214835 60.742207,19.202533 46.197697,14.269413 41.551463,12.693531 39.461842,12.490332 25.303365,12.236979 Z m 61.832918,0.08372 V 30.548006 H 120.28361 V 12.082467 Z m 0,31.106111 v 77.104338 h 15.684314 l 0.15864,-40.868823 30.618287,-0.17156 -0.1632,-19.021578 -30.608983,-0.17156 V 43.188594 Z"
       sodipodi:nodetypes="ccccsccccccccccssssscccccccccccccccc" /></g></svg>
